<svg xmlns="http://www.w3.org/2000/svg" viewBox="0 0 200 206.94"><defs><style>.cls-1{fill:#fff;}</style></defs><g id="Ebene_2" data-name="Ebene 2"><g id="Ebene_1-2" data-name="Ebene 1"><path class="cls-1" d="M64.61,103.58c0-8,6.12-13.66,14.83-13.66a15,15,0,0,1,9.42,2.85v3.89a14,14,0,0,0-9.27-3.3c-6.85,0-11.17,4.25-11.17,10s4.28,10.14,11.21,10.14A13.85,13.85,0,0,0,89,110v3.7A14.52,14.52,0,0,1,79.22,117C70.1,117,64.61,111.09,64.61,103.58Z"/><path class="cls-1" d="M118.16,103.58c0-8,6.12-13.66,14.83-13.66a15,15,0,0,1,9.42,2.85v3.89a14,14,0,0,0-9.27-3.3c-6.85,0-11.17,4.25-11.17,10s4.28,10.14,11.21,10.14a13.85,13.85,0,0,0,9.41-3.51v3.7a14.52,14.52,0,0,1-9.82,3.29C123.65,117,118.16,111.09,118.16,103.58Z"/><path class="cls-1" d="M6.51,61.44,7.72,58l24.22,8.51L30.73,70,20,66.16l-5.3,15.07L25.43,85l-1.21,3.46L0,80,1.21,76.5l10.3,3.62L16.8,65.06Z"/><path class="cls-1" d="M50.5,12.82,54,10.45l.35,19.76,5,7.5-3,2-5-7.51-18-7.91L36.85,22l14,6.32Z"/><path class="cls-1" d="M143.55,34.36l12.57,9L154.21,46,138.65,34.91l14.92-20.85,15.4,11-1.92,2.68-12.42-8.88-4.2,5.87,11.62,8.31-1.87,2.62-11.62-8.31Z"/><path class="cls-1" d="M177.56,88.47l-1.77-4.93L182.57,68l-10.95,4-1.25-3.44,24.11-8.69,4.29,11.91c1.58,4.38-.26,8.54-4.29,10-4.24,1.52-8.12-.38-10-5.65l-.87-2.41Zm15.09-24.08-8.33,3,2.64,7.3c1.15,3.21,3.4,4.49,6.09,3.52,2.48-.89,3.43-3.22,2.41-6Z"/><path class="cls-1" d="M29.06,141.67l-5.47-14.25L16.85,130,22,143.34l-3,1.16-5.12-13.34L2.74,135.43,1.42,132l23.93-9.19,6.79,17.67Z"/><path class="cls-1" d="M37.9,169.47c4.3-6.24,12.54-7.8,19.42-3.07s8.27,13,4,19.2-12.57,7.79-19.36,3.11S33.6,175.71,37.9,169.47Zm20.26,14c3.26-4.73,2.39-10.63-2.8-14.2S44.3,166.9,41,171.63s-2.42,10.61,2.86,14.25S54.89,188.17,58.16,183.44Z"/><path class="cls-1" d="M147.36,184.33l-9.12-12.25,2.91-2.17,9,12.17c3,4,7,4.48,10.87,1.6s4.53-6.85,1.56-10.84l-9-12.17,2.91-2.16,9.12,12.25c4,5.44,3,11.57-2.49,15.68S151.4,189.77,147.36,184.33Z"/><path class="cls-1" d="M192.74,146.15l-3.59-1.27a16,16,0,0,0,6.73-8.26c1.37-3.87.78-6.49-1.88-7.43-1.76-.62-3.13-.06-5.25,2.88l-3.2,4.85c-2.69,3.87-5.51,4.7-8.24,3.73-4-1.42-5.64-6-3.55-11.91a14.76,14.76,0,0,1,5.59-7.57l3.56,1.26a13.84,13.84,0,0,0-6,7.49c-1.33,3.76-.79,6.4,1.42,7.18,1.53.54,2.89-.14,4.62-2.6l3.29-4.9c2.9-4.14,5.7-5.13,8.81-4,4.42,1.57,6.1,6.24,4,12.11A17.13,17.13,0,0,1,192.74,146.15Z"/><path class="cls-1" d="M105.21,0c5.24,0,8.64,3.22,8.64,8s-3.51,7.87-9.52,7.87H97v9.78H93.35V0ZM104,12.78c3.92,0,6.11-1.69,6.11-4.76s-2.09-4.76-5.6-4.76H97v9.52Z"/><path class="cls-1" d="M91.38,193.5c0-8,6.12-13.67,14.84-13.67a14.9,14.9,0,0,1,9.41,2.86v3.88a14.07,14.07,0,0,0-9.26-3.29c-6.85,0-11.18,4.25-11.18,10s4.29,10.15,11.21,10.15a13.83,13.83,0,0,0,9.42-3.52v3.7a14.49,14.49,0,0,1-9.82,3.3C96.88,206.94,91.38,201,91.38,193.5Z"/></g></g></svg>