<svg width="2560" height="1000" viewBox="0 0 2560 1000" fill="none" xmlns="http://www.w3.org/2000/svg">
<rect width="2560" height="1000" fill="#F7F7F7"/>
<path d="M373.585 278H378.616C389.077 278.456 399.272 281.191 408.474 286.01C424.496 294.475 436.545 308.737 442.04 325.798C443.496 330.292 444.423 334.98 444.886 339.669C445.284 343.381 445.019 347.093 445.085 350.805C444.423 361.289 441.311 371.448 435.949 380.565C424.032 400.882 402.383 413.776 378.55 414.688H372.79C369.877 414.558 366.964 414.232 364.051 413.776C331.678 408.436 307.513 381.411 306.255 349.112C306.057 347.093 306.057 345.009 306.255 342.99C306.189 341.102 306.586 339.278 306.653 337.39L306.785 337.194C309.036 318.7 319.695 301.574 335.054 290.764C346.309 282.884 359.748 278.456 373.585 278ZM369.414 284.642C368.686 284.773 367.957 284.903 367.163 284.903C366.038 285.163 364.912 285.228 363.787 285.489C363.323 285.619 362.86 285.684 362.396 285.749C361.933 285.814 361.668 285.945 361.271 286.01C360.145 286.27 359.02 286.596 357.961 286.921L357.299 287.052L356.438 287.377L355.577 287.638L355.114 287.898C355.379 288.354 355.577 288.875 355.776 289.396C356.107 290.112 356.438 290.829 356.769 291.545C357.166 292.522 357.63 293.434 358.027 294.41C358.424 295.257 358.821 296.038 359.152 296.885C359.881 298.448 360.543 300.011 361.271 301.574C364.78 309.388 368.355 317.202 371.863 324.952C372.195 325.798 372.592 326.645 372.989 327.426C373.386 328.208 373.783 329.119 374.114 329.901C374.445 330.682 374.776 331.724 375.571 332.376C376.167 331.724 376.63 331.008 376.895 330.161C377.292 329.25 377.756 328.338 378.153 327.426C381.993 318.961 385.833 310.56 389.672 302.095C390.07 301.248 390.467 300.467 390.798 299.62C391.129 298.773 391.526 297.927 391.923 297.145C392.321 296.364 392.652 295.452 393.049 294.671C393.446 293.889 393.843 292.847 394.24 291.936C394.638 291.024 394.969 290.243 395.366 289.461C395.631 288.94 395.829 288.419 396.094 287.963C395.631 287.833 395.233 287.638 394.77 287.442C394.505 287.377 394.174 287.247 393.909 287.182L393.247 287.052C392.188 286.661 391.063 286.401 389.937 286.14C389.077 286.01 388.216 285.814 387.421 285.554C386.296 285.359 385.17 285.228 384.045 284.968C383.317 284.903 382.522 284.838 381.794 284.707C380.404 284.577 378.947 284.642 377.557 284.447C374.975 284.186 372.195 284.512 369.414 284.642ZM344.521 292.587C335.849 297.666 328.5 304.569 322.939 312.839C323.137 313.491 323.402 314.142 323.733 314.728C324.13 315.509 324.528 316.356 324.991 317.202C325.455 318.049 325.918 319.026 326.381 320.003C331.28 329.771 336.312 339.539 341.211 349.437L341.608 350.219C342.204 351.326 342.734 352.433 343.263 353.605C347.103 361.289 351.009 368.908 354.849 376.592C354.981 377.048 355.445 377.309 355.908 377.244C356.372 376.462 356.703 375.616 357.1 374.834L358.093 372.555C358.424 371.773 358.755 371.122 359.086 370.406C359.417 369.69 359.748 368.908 360.079 368.127C360.41 367.345 360.741 366.694 361.072 365.978C363.522 360.377 366.038 354.842 368.487 349.307C368.752 348.656 369.348 348.265 370.076 348.33H381.397C382.125 348.265 382.787 348.721 382.986 349.437C385.435 354.972 387.951 360.508 390.334 365.978C390.665 366.694 390.996 367.41 391.327 368.127C391.658 368.843 391.989 369.624 392.321 370.406L393.247 372.62C393.976 374.183 394.571 375.746 395.432 377.244H396.094C399.206 371.318 402.185 365.327 405.164 359.335C411.983 345.856 418.802 332.376 425.621 318.896C426.151 317.919 426.614 316.877 427.144 315.9C427.541 314.923 428.071 313.946 428.666 313.1C428.071 312.384 427.607 311.667 427.078 310.951C421.715 303.527 414.83 297.276 406.885 292.652C406.621 292.457 406.29 292.326 405.958 292.261C402.45 299.88 398.941 307.434 395.498 315.053C395.035 316.095 394.571 317.072 394.108 318.114C393.777 318.83 393.446 319.547 393.115 320.263C392.718 321.175 392.254 322.152 391.857 323.128C391.46 324.105 390.996 324.952 390.599 325.863C388.216 331.138 385.833 336.413 383.383 341.623C383.184 342.209 382.853 342.73 382.522 343.251C382.059 343.707 381.331 343.707 380.735 343.707H370.341C369.613 343.772 368.818 343.381 368.487 342.73C365.905 337.129 363.323 331.529 360.741 325.863C360.344 324.952 359.947 324.04 359.483 323.128C359.02 322.217 358.623 321.24 358.225 320.328L356.968 317.593C353.194 309.193 349.222 300.727 345.382 292.261C345.183 292.261 344.786 292.392 344.521 292.587ZM434.625 324.756C433.367 327.491 431.977 330.096 430.653 332.766C430.255 333.483 429.858 334.264 429.527 334.98C429.196 335.697 428.799 336.478 428.402 337.194L427.938 337.976C427.806 338.236 427.673 338.562 427.541 338.822L427.276 339.409C427.144 339.669 427.011 339.929 426.879 340.19C426.68 340.711 426.416 341.167 426.217 341.623C421.583 350.805 416.882 359.922 412.314 369.104L412.049 369.69C411.851 370.08 411.652 370.406 411.52 370.797C411.387 371.187 411.122 371.513 410.99 371.904C410.858 372.294 410.593 372.62 410.46 373.011L410.196 373.597C410.063 373.857 409.931 374.118 409.798 374.378C409.335 375.29 408.871 376.267 408.408 377.178C404.965 384.081 401.457 390.984 397.882 397.887C397.418 398.994 396.16 399.58 395.035 399.124C394.969 399.059 394.836 399.059 394.77 398.994C393.578 398.212 393.314 396.715 392.718 395.542C392.254 394.631 391.857 393.719 391.46 392.807C387.289 383.495 383.052 374.248 378.815 364.936C378.418 364.089 378.02 363.243 377.689 362.396C377.358 361.55 376.895 360.703 376.63 359.856C376.432 359.466 375.968 359.335 375.571 359.531C375.041 360.573 374.512 361.615 374.114 362.657C369.877 372.034 365.574 381.346 361.403 390.723C361.072 391.44 360.741 392.156 360.41 392.872C360.013 393.849 359.55 394.761 359.152 395.738C358.821 396.584 358.424 397.431 357.961 398.212C357.431 399.059 356.372 399.385 355.379 399.059C354.717 398.798 354.253 398.277 353.988 397.626C350.48 390.723 346.971 383.821 343.462 376.853C343.263 376.462 343.131 376.137 342.932 375.746C342.601 375.029 342.204 374.248 341.807 373.532L341.542 372.946C341.343 372.555 341.145 372.229 341.012 371.839C340.88 371.448 340.615 371.122 340.417 370.732C340.218 370.341 340.152 370.145 340.019 369.82C339.755 369.364 339.556 368.908 339.357 368.452C339.093 367.866 338.828 367.345 338.497 366.759C333.929 357.577 329.162 348.46 324.594 339.278L324.329 338.692C323.998 338.041 323.667 337.39 323.336 336.739C323.005 336.087 322.674 335.436 322.343 334.85C322.211 334.524 322.078 334.264 321.946 334.004C321.813 333.743 321.681 333.483 321.549 333.222C320.158 330.422 318.702 327.557 317.245 324.756C316.782 325.668 316.385 326.58 316.12 327.557C311.022 343.121 312.479 360.052 320.158 374.639C320.158 374.704 320.224 374.834 320.291 374.964C321.019 376.202 321.681 377.504 322.475 378.676C329.427 389.747 339.622 398.408 351.737 403.552L353.128 404.138L354.187 404.529L355.379 404.92L356.239 405.245L357.1 405.506C357.828 405.701 358.557 405.897 359.285 406.157C360.41 406.483 361.536 406.743 362.661 407.004C363.125 407.069 363.588 407.199 364.051 407.264C364.515 407.394 364.978 407.459 365.442 407.525C367.693 407.915 370.01 408.111 372.261 408.241C374.578 408.501 376.961 408.501 379.278 408.241C381.662 408.176 384.045 407.915 386.362 407.525C386.826 407.394 387.289 407.329 387.819 407.264C388.348 407.199 388.745 407.069 389.209 407.004C390.334 406.743 391.46 406.483 392.585 406.157C393.314 405.897 394.042 405.766 394.77 405.506L395.631 405.18L396.227 405.05C397.087 404.724 397.882 404.464 398.742 404.138L400.133 403.552C416.882 396.454 429.792 382.649 435.552 365.587C439.987 352.237 439.656 337.846 434.625 324.756Z" fill="#141414"/>
<path d="M2219.78 618.443H2094.6C2086.92 618.443 2080.73 624.631 2080.73 632.316V708.777C2080.73 716.463 2086.92 722.65 2094.6 722.65H2219.72C2227.4 722.65 2233.59 716.463 2233.59 708.777V632.316C2233.65 624.631 2227.4 618.443 2219.78 618.443ZM2222.97 708.777C2222.97 710.536 2221.54 711.969 2219.78 711.969H2094.6C2092.85 711.969 2091.41 710.536 2091.41 708.777V632.316C2091.41 630.557 2092.85 629.125 2094.6 629.125H2219.72C2221.48 629.125 2222.91 630.557 2222.91 632.316L2222.97 708.777Z" fill="#141414"/>
<path d="M2152.5 688.848C2152.5 688.913 2152.44 688.978 2152.44 689.044C2152.44 689.109 2152.37 689.304 2152.31 689.369L2152.5 688.848Z" fill="#141414"/>
<path d="M2152.96 655.371L2152.18 652.635C2149.25 642.41 2139.87 635.311 2129.19 635.311H2102.35V705.325H2129.77C2140.06 705.325 2149.18 698.747 2152.44 688.977C2155.89 678.101 2156.08 666.378 2152.96 655.371ZM2137.07 685.07L2136.94 685.33C2135.11 690.41 2130.29 693.797 2124.89 693.797H2118.11V646.839H2124.37C2130.03 646.839 2134.98 650.551 2136.61 655.957L2137.72 659.669C2140.26 667.941 2140.06 676.863 2137.07 685.07Z" fill="#141414"/>
<path d="M2202.72 670.026L2201.42 669.439L2203.3 668.332C2219.07 659.279 2212.62 635.247 2194.45 635.247H2162.99V705.26H2195.68C2215.74 705.326 2221.28 677.776 2202.72 670.026ZM2178.82 645.993H2185.65C2190.34 645.993 2194.19 649.835 2194.19 654.525C2194.19 659.214 2190.34 663.057 2185.65 663.057H2178.82V645.993ZM2186.89 692.951H2178.75V675.887H2186.89C2191.58 675.887 2195.42 679.73 2195.42 684.419C2195.42 689.174 2191.65 692.951 2186.89 692.951Z" fill="#141414"/>
<path d="M2042.74 333.605V343.374H2066.06C2065.34 348.845 2063.52 352.883 2060.78 355.683C2057.4 359.07 2052.06 362.848 2042.81 362.848C2028.48 362.848 2017.28 351.255 2017.28 336.926C2017.28 322.598 2028.48 311.005 2042.81 311.005C2049.39 310.94 2055.7 313.415 2060.39 317.974L2067.23 311.135C2060.78 304.622 2051.99 301.04 2042.81 301.17C2023.14 301.17 2006.6 317.192 2006.6 336.861C2006.6 356.53 2023.14 372.552 2042.81 372.552C2053.42 372.552 2061.43 369.035 2067.69 362.587C2074.13 356.139 2076.15 347.086 2076.15 339.792C2076.15 337.773 2076.02 335.689 2075.63 333.67L2042.74 333.605Z" fill="#141414"/>
<path d="M2105.2 325.725C2092.5 325.725 2082.08 335.364 2082.08 348.715C2082.08 361.936 2092.5 371.771 2105.2 371.771C2117.9 371.771 2128.32 362.001 2128.32 348.715C2128.32 335.429 2117.97 325.725 2105.2 325.725ZM2105.2 362.718C2098.23 362.718 2092.18 356.986 2092.18 348.78C2092.18 340.574 2098.17 334.843 2105.2 334.843C2112.23 334.843 2118.23 340.509 2118.23 348.78C2118.23 357.051 2112.23 362.718 2105.2 362.718Z" fill="#141414"/>
<path d="M2218.53 330.87H2218.2C2215.92 328.2 2211.56 325.725 2206.09 325.725C2194.56 325.725 2184.59 335.754 2184.59 348.78C2184.59 361.806 2194.56 371.901 2206.09 371.901C2211.62 371.901 2215.99 369.426 2218.2 366.691H2218.59V369.882C2218.59 378.674 2213.9 383.429 2206.28 383.429C2200.09 383.429 2196.25 379 2194.69 375.222L2185.9 378.87C2189.28 387.076 2197.36 392.482 2206.28 392.417C2218.14 392.417 2228.17 385.448 2228.17 368.449V326.897H2218.53V330.87ZM2206.93 362.653C2199.96 362.653 2194.62 356.726 2194.62 348.715C2194.62 340.574 2199.96 334.778 2206.93 334.778C2213.9 334.778 2219.18 340.704 2219.18 348.845C2219.18 356.986 2213.77 362.718 2206.93 362.653Z" fill="#141414"/>
<path d="M2156.78 325.725C2144.08 325.725 2133.66 335.364 2133.66 348.715C2133.66 361.936 2144.08 371.771 2156.78 371.771C2169.49 371.771 2179.91 362.001 2179.91 348.715C2179.91 335.429 2169.49 325.725 2156.78 325.725ZM2156.78 362.718C2149.82 362.718 2143.76 356.986 2143.76 348.78C2143.76 340.574 2149.82 334.843 2156.78 334.843C2163.75 334.843 2169.81 340.509 2169.81 348.78C2169.81 357.051 2163.75 362.718 2156.78 362.718Z" fill="#141414"/>
<path d="M2236.05 302.149H2246.01V371.837H2236.05V302.149Z" fill="#141414"/>
<path d="M2276.69 362.717C2271.54 362.717 2267.89 360.373 2265.48 355.748L2296.29 343.048L2295.25 340.443C2293.36 335.298 2287.5 325.789 2275.58 325.789C2263.66 325.789 2253.83 335.102 2253.83 348.845C2253.83 361.74 2263.6 371.9 2276.69 371.9C2284.37 371.966 2291.6 368.123 2295.9 361.74L2288.08 356.53C2285.48 360.177 2281.9 362.717 2276.69 362.717ZM2275.97 334.386C2280.07 334.386 2283.53 336.47 2284.7 339.466L2263.92 348.063C2263.92 338.359 2270.76 334.321 2275.97 334.386Z" fill="#141414"/>
<path d="M1580.3 401.379H1573.69V416.988H1577.09V410.502H1578.47L1581.18 416.988H1584.82L1581.55 410.075C1586.02 408.008 1584.51 401.379 1580.3 401.379ZM1579.86 408.079C1578.97 408.293 1578.03 408.364 1577.09 408.15V403.731H1579.54C1581.49 403.731 1582.18 407.295 1579.86 408.079ZM1560.74 416.988H1570.11V414.351H1564.13V410.146H1568.53V407.722H1564.13V403.731H1570.11V401.308H1560.74V416.988ZM1551.87 405.085C1551.49 404.586 1551.62 403.945 1552.18 403.945H1557.53V401.45H1551.24C1549.67 401.308 1548.35 402.662 1548.22 404.372C1548.16 405.157 1548.35 405.941 1548.79 406.511L1554.01 412.712C1554.38 412.997 1554.51 413.638 1554.26 414.066C1554.07 414.351 1553.82 414.494 1553.57 414.494H1548.03V416.988H1555.08C1556.46 416.988 1559.23 413.353 1556.71 410.716L1551.87 405.085ZM1541.62 416.988H1545.08V401.379H1541.62V416.988ZM1528.53 416.988H1537.91V414.351H1531.93V410.146H1536.33V407.722H1531.93V403.731H1537.91V401.308H1528.53V416.988ZM1520.55 416.988H1524.07V401.379H1520.55V407.722H1515.96V401.379H1512.5V416.988H1515.96V410.288H1520.55V416.988ZM1504.51 416.988H1507.97V401.379H1505.26L1505.33 411.5L1499.79 401.379H1496.65V416.988H1499.29V407.152L1504.51 416.988ZM1488.6 416.988H1492.06V401.379H1489.35L1489.41 411.5L1483.88 401.379H1480.74V416.988H1483.31V407.152L1488.6 416.988ZM1467.72 416.988H1477.09V414.351H1471.11V410.146H1475.51V407.722H1471.11V403.731H1477.09V401.308H1467.72V416.917V416.988ZM1458.97 405.014C1458.6 404.515 1458.72 403.874 1459.29 403.874H1464.63V401.379H1458.41C1456.84 401.236 1455.51 402.591 1455.39 404.301C1455.33 405.085 1455.51 405.869 1455.95 406.439L1461.18 412.64C1461.55 412.926 1461.68 413.567 1461.43 413.995C1461.24 414.28 1460.99 414.422 1460.73 414.422H1455.2V416.988H1462.24C1463.63 416.988 1466.4 413.353 1463.88 410.716L1458.97 405.014Z" fill="#141414"/>
<path d="M1584.95 387.978V278H1455.14V387.978H1584.95ZM1531.55 286.553C1531.55 286.553 1518.28 288.478 1509.98 304.087C1501.68 319.696 1500.04 331.029 1491.24 347.708C1482.43 364.386 1473.5 366.453 1463.06 366.453V286.553H1531.55ZM1577.02 379.639H1508.53C1508.53 379.639 1521.99 376.289 1530.8 359.611C1539.6 342.932 1541.11 331.528 1549.54 315.99C1560.04 296.817 1576.96 299.739 1576.96 299.739L1577.02 379.639Z" fill="#141414"/>
<path fill-rule="evenodd" clip-rule="evenodd" d="M992.792 396.164V380.077H983.935V397.923C983.935 403.98 990.187 408.864 997.872 408.864C1005.56 408.864 1011.81 403.98 1011.81 397.923V380.077H1003.02V396.164C1002.89 398.965 1000.54 401.179 997.742 401.114C995.006 400.984 992.857 398.834 992.792 396.164Z" fill="#141414"/>
<path d="M1040.73 360.929H1031.81V407.757H1040.73V360.929Z" fill="#141414"/>
<path d="M1025.62 360.929H1016.69V407.757H1025.62V360.929Z" fill="#141414"/>
<path fill-rule="evenodd" clip-rule="evenodd" d="M853.351 370.761H848.466V407.82H838.957V363.076H855.304C862.599 362.881 868.656 368.612 868.851 375.841C869.047 382.159 864.683 387.76 858.496 389.128L871.587 407.82H860.45L850.941 393.166V382.485H853.155C856.672 382.485 859.473 379.879 859.473 376.623C859.408 373.367 856.672 370.696 853.416 370.761C853.416 370.761 853.416 370.761 853.351 370.761Z" fill="#141414"/>
<path d="M899.722 395.774C899.788 395.122 899.788 394.536 899.788 393.885C899.918 384.246 893.535 378.905 885.394 378.905C877.123 378.905 870.479 385.614 870.479 393.82C870.479 402.026 877.188 408.734 885.394 408.734C891.646 408.734 896.466 405.934 899.006 401.505L891.777 398.183C890.735 400.333 888.52 401.635 886.176 401.57C882.724 401.57 880.119 399.03 880.119 395.969V395.774H899.722ZM879.988 390.629C879.923 387.633 882.333 385.158 885.329 385.093C888.26 385.027 890.735 387.372 890.865 390.303C890.865 390.433 890.865 390.498 890.865 390.629H879.988Z" fill="#141414"/>
<path d="M935.219 407.822V360.929H926.296V383.073C923.952 380.663 920.695 379.295 917.308 379.295C909.949 379.295 903.957 385.808 903.957 393.884C903.957 401.96 909.949 408.473 917.308 408.473C920.695 408.408 923.952 407.04 926.296 404.565V407.691L935.219 407.822ZM919.914 400.983C916.332 400.983 913.336 397.792 913.336 393.819C913.336 389.846 916.266 386.655 919.914 386.655C923.561 386.655 926.427 389.846 926.427 393.819C926.427 397.792 923.496 400.983 919.914 400.983Z" fill="#141414"/>
<path d="M972.991 383.464C975.466 381.249 976.834 378.058 976.899 374.802C976.899 371.806 975.727 368.94 973.643 366.791C971.493 364.446 967.716 363.144 962.636 363.144H947.396V407.887H967.13C974.685 407.757 980.742 402.091 980.742 395.057C980.807 389.912 978.983 386.264 972.991 383.464ZM965.501 400.007H956.969V370.764H962.896C965.501 370.764 967.651 373.173 967.651 375.779C967.651 378.384 965.567 380.533 962.961 380.533H959.835V388.544H965.501C968.562 388.544 971.102 391.084 971.102 394.145V394.275C970.972 397.532 968.953 399.811 965.501 400.007Z" fill="#141414"/>
<path d="M976.64 332.86C976.315 332.925 975.989 332.925 975.663 332.925H974.751C974.556 332.925 974.361 332.925 974.23 332.99H974.165C973.84 333.576 973.644 334.162 973.579 334.813C973.644 335.53 974.426 335.725 975.012 335.855C975.207 335.921 975.468 335.921 975.728 335.921C976.054 335.986 976.38 335.79 976.575 335.465C976.901 334.748 977.096 333.967 977.226 333.12C977.226 333.055 977.226 332.99 977.161 332.925C977.031 332.794 976.901 332.794 976.77 332.794L976.64 332.86Z" fill="#141414"/>
<path d="M1018.78 335.461C1018.39 334.94 1017.87 334.485 1017.28 334.159C1017.02 334.029 1016.83 333.898 1016.7 333.768L1016.57 333.703C1016.43 333.573 1016.3 333.573 1016.17 333.573C1015.65 333.638 1015.2 333.964 1015 334.485C1015 334.81 1015.46 335.396 1016.11 336.178L1016.24 336.308C1016.5 336.634 1016.83 336.894 1017.28 336.959C1017.67 336.959 1018 336.829 1018.26 336.569C1018.52 336.308 1019.04 335.787 1018.78 335.461Z" fill="#141414"/>
<path d="M1021.45 339.892C1021.38 339.696 1021.32 339.566 1021.25 339.371C1021.19 339.11 1021.12 338.85 1021.12 338.589C1021.12 338.198 1020.99 337.808 1020.86 337.482C1020.67 337.091 1020.28 336.831 1019.88 336.831C1019.75 336.831 1019.62 336.831 1019.49 336.896C1018.84 337.221 1018.52 337.547 1018.58 338.263C1018.91 339.175 1019.1 340.152 1019.3 341.064C1019.3 341.194 1019.43 341.715 1019.69 341.715H1019.75L1021.58 341.129C1021.64 341.129 1021.71 341.064 1021.77 340.999C1021.84 340.673 1021.64 340.282 1021.45 339.892Z" fill="#141414"/>
<path d="M1017.41 338.198C1016.3 338.198 1015.65 337.351 1015.07 336.57C1014.87 336.309 1014.68 336.049 1014.48 335.853C1014.15 335.528 1013.83 335.202 1013.5 334.876C1013.18 334.616 1012.92 334.355 1012.72 334.03C1012.53 333.574 1012.4 333.053 1012.27 332.597C1012.14 332.206 1012.07 331.815 1011.94 331.555L1011.88 331.425C1011.68 330.904 1011.48 330.317 1010.77 330.187C1010.44 330.122 1010.12 330.122 1009.73 330.122C1008.81 330.057 1007.84 329.927 1007.38 329.275C1006.93 328.624 1007.12 328.103 1007.38 327.452C1007.51 327.191 1007.58 326.931 1007.64 326.67C1007.97 325.498 1008.03 324.326 1007.84 323.153C1007.84 323.023 1007.77 322.828 1007.71 322.697C1007.51 322.307 1007.45 321.916 1007.51 321.46C1007.58 321.33 1007.71 321.199 1007.9 321.264C1008.1 321.264 1008.29 321.33 1008.42 321.395C1008.55 321.46 1008.62 321.46 1008.75 321.46C1010.38 321.916 1012.14 321.72 1013.63 321.069C1015.46 320.222 1017.22 318.203 1017.15 315.794C1016.89 313.319 1015.39 310.909 1012.46 308.499L1012.27 308.304C1011.88 307.978 1011.42 307.587 1011.42 307.197C1011.42 306.806 1012.33 306.61 1012.85 306.48L1013.18 306.415L1013.31 306.35C1014.02 306.22 1014.74 305.959 1015.39 305.568C1017.48 304.136 1017.41 301.726 1017.15 300.358C1017.15 300.293 1017.15 300.293 1017.15 300.228C1017.15 300.032 1017.09 299.837 1016.89 299.837C1016.82 299.837 1016.76 299.837 1016.76 299.902C1016.69 299.967 1016.63 300.032 1016.56 300.098C1016.3 300.358 1016.04 300.553 1015.78 300.749C1015.07 301.074 1014.35 301.335 1013.57 301.465C1013.05 301.53 1012.59 301.661 1012.14 301.856C1010.05 302.572 1008.75 303.614 1008.29 304.982C1008.1 305.829 1008.23 306.676 1008.62 307.457C1009.34 308.499 1010.25 309.541 1011.22 310.388C1012.72 311.821 1014.28 313.319 1014.61 315.273C1014.81 316.445 1014.35 317.422 1013.18 318.269C1012.46 318.659 1011.68 318.855 1010.9 318.855C1009.79 318.855 1008.75 318.594 1007.77 318.073C1006.53 317.422 1005.36 316.705 1004.25 315.924C1002.63 314.686 1000.8 313.709 998.849 312.993C998.003 312.667 997.091 312.407 996.179 312.212C994.876 312.016 993.574 311.56 992.467 310.844C992.076 310.583 991.75 310.323 991.359 310.062C990.448 309.281 989.406 308.695 988.233 308.304C987.842 308.174 987.387 308.108 986.996 308.043C986.41 307.978 985.758 307.848 985.237 307.522L984.521 307.001C983.674 306.35 982.697 305.699 981.72 305.178C980.027 304.396 978.268 303.875 976.445 303.549C975.859 303.354 975.403 302.963 975.012 302.507C974.751 302.182 974.426 301.856 974.1 301.595C972.602 300.423 971.3 299.642 969.541 299.642H969.02C968.108 299.837 967.262 300.228 966.675 300.879L966.48 301.074C965.112 299.186 963.614 297.427 961.921 295.864C949.481 284.401 930.399 284.401 917.959 295.864C916.396 297.297 914.963 298.925 913.726 300.619L913.4 300.488C912.749 300.228 912.032 300.163 911.316 300.163C910.404 300.163 909.492 300.358 908.645 300.684C908.124 300.944 907.603 301.27 907.082 301.595C906.236 302.182 905.324 302.638 904.412 303.028C903.631 303.354 902.849 303.614 902.067 303.81C900.504 304.201 899.006 304.917 897.769 305.894L896.857 306.741C895.685 307.848 895.62 307.913 894.643 307.913C892.689 307.848 890.8 308.499 889.367 309.737C888.26 310.909 886.892 311.821 885.394 312.472C884.678 312.667 883.962 312.798 883.245 312.863C882.464 312.928 881.682 312.993 880.9 313.188C879.337 313.579 877.644 314.882 876.211 315.989C875.755 316.315 875.104 316.836 874.843 317.031L874.322 317.357C872.564 318.399 870.936 319.376 868.786 319.376H868.591C866.963 319.245 865.595 318.203 865.074 316.705C864.618 315.077 865.139 313.254 866.377 312.081C866.963 311.495 867.679 310.909 868.331 310.323C869.373 309.476 870.35 308.564 871.196 307.587C872.043 306.35 871.913 304.722 871.001 303.549C870.089 302.507 868.005 301.986 867.223 301.791H867.093C867.028 301.791 866.898 301.791 866.833 301.726C866.312 301.595 865.856 301.53 865.4 301.465C864.162 301.14 863.185 300.163 862.143 299.576C861.753 300.228 861.557 300.944 861.622 301.726C861.948 303.484 863.12 304.982 864.748 305.764L864.944 305.829C865.4 306.024 865.921 306.089 866.442 306.024H867.093C867.419 306.024 867.744 306.024 868.07 306.089C868.396 306.155 868.656 306.48 868.721 306.806C868.721 307.066 868.591 307.262 868.396 307.392L867.614 308.043C866.246 309.085 864.944 310.323 863.837 311.625C862.339 313.254 862.274 315.989 862.99 317.813C863.902 320.157 866.312 321.525 868.331 321.785C868.656 321.851 869.047 321.851 869.438 321.851C870.61 321.785 871.717 321.655 872.89 321.33H872.955C873.02 321.33 873.085 321.33 873.085 321.59C873.15 322.111 873.15 322.632 873.15 323.153C873.215 324 873.215 324.847 873.28 325.172C873.476 325.954 873.736 326.735 874.062 327.517C874.192 327.777 874.257 327.973 874.322 328.103C874.453 328.429 874.322 328.819 874.062 329.08C873.215 329.731 872.238 330.252 871.196 330.513C870.675 330.578 870.154 330.578 869.763 330.643H869.308C869.112 330.643 868.982 330.708 868.852 330.838C868.526 331.359 868.2 331.946 868.07 332.532C867.875 332.988 867.679 333.444 867.549 333.899C866.963 334.746 866.181 335.397 865.27 335.788C865.074 335.918 864.814 336.049 864.618 336.179C864.293 336.7 863.902 337.221 863.446 337.677C863.12 337.937 862.664 338.133 862.208 338.133C861.622 338.98 861.232 339.891 861.101 340.933L861.036 341.389V341.52H861.101C861.492 341.585 861.818 341.65 862.208 341.715C862.729 341.845 863.185 341.91 863.706 341.91C864.162 341.91 864.553 341.78 864.944 341.585C865.53 341.259 865.986 340.738 866.246 340.152C866.442 339.761 866.702 339.37 867.028 339.11C867.223 338.914 867.419 338.784 867.679 338.849C867.94 338.849 868.2 338.914 868.461 338.98C868.721 339.045 868.982 339.11 869.177 339.11C870.219 339.045 871.261 338.654 872.043 338.003C872.303 337.807 872.499 337.612 872.759 337.351C873.085 337.026 873.476 336.7 873.867 336.44C874.453 336.179 875.039 336.049 875.625 336.114C876.472 336.114 877.384 336.244 878.23 336.44C878.621 336.57 879.077 336.57 879.468 336.57C880.119 336.57 880.835 336.44 881.422 336.114C882.073 335.723 882.724 335.397 883.31 335.137L884.092 334.681C885.069 334.16 885.85 332.727 886.176 332.141C886.502 331.555 886.957 330.383 886.957 330.383V329.992L885.85 329.145L885.785 329.21C885.394 329.796 885.004 330.448 884.548 330.969C882.594 333.639 879.403 333.965 876.862 333.965H876.341C873.476 333.834 870.74 335.007 868.786 337.091C868.721 337.156 868.591 337.221 868.526 337.156C868.526 337.091 868.526 337.026 868.526 336.961C868.591 336.765 868.656 336.57 868.721 336.44C870.675 333.639 874.062 333.183 876.797 333.183C878.426 333.118 880.054 332.727 881.552 332.076C883.115 331.164 884.287 329.666 884.873 327.973C885.134 326.996 885.394 326.019 885.46 324.977C885.59 324.195 885.72 323.414 885.915 322.632C885.981 322.567 886.046 322.502 886.176 322.502H886.241C886.306 322.502 886.567 322.632 886.567 322.762C886.306 324.326 885.915 326.41 886.632 328.168C886.957 328.885 887.674 329.21 888.781 329.21C889.498 329.21 890.214 329.08 890.93 329.015C891.451 328.95 891.907 328.885 892.428 328.819H893.015C893.861 328.819 894.773 328.95 895.62 329.145C896.336 329.34 897.118 329.406 897.834 329.471H898.29C898.55 329.471 898.811 329.536 899.137 329.536C899.658 329.601 900.179 329.471 900.569 329.145C900.83 328.95 900.7 328.689 900.635 328.298V328.233C900.635 328.168 900.635 328.103 900.569 328.038C900.439 327.582 900.179 326.866 900.569 326.475C900.635 326.41 900.7 326.41 900.765 326.41C900.83 326.41 900.895 326.475 900.96 326.54L901.09 326.931C901.221 327.517 901.481 328.103 901.807 328.624C902.784 329.731 903.956 330.708 905.259 331.359C906.236 332.011 907.343 333.118 907.473 334.681C907.473 335.397 906.822 335.853 906.301 336.179C905.389 336.635 904.477 336.895 903.5 337.026C903.435 337.026 903.305 337.026 903.24 336.961C902.393 336.44 901.742 335.723 901.351 334.811C901.091 334.355 900.765 333.899 900.439 333.509C899.918 332.988 899.202 332.727 898.485 332.857C897.704 332.923 896.857 333.053 896.076 333.248C895.88 333.248 895.75 333.378 895.685 333.509C895.62 333.704 895.62 333.899 895.75 334.095C896.206 334.876 896.662 335.658 897.118 336.44L897.313 336.765C897.443 336.961 897.639 337.026 897.834 336.961H898.55C898.876 336.895 899.137 337.026 899.397 337.286C899.527 337.482 899.658 337.742 899.788 337.937C900.048 338.524 900.439 339.045 900.96 339.435C901.481 339.891 902.133 340.087 902.849 340.087C903.175 340.087 903.5 340.022 903.761 339.956C905.845 339.37 907.864 338.589 909.818 337.612H910.469L910.86 337.547C911.511 337.612 912.162 337.351 912.683 336.961C912.879 336.7 913.074 336.374 913.205 336.114C916.331 340.803 924.732 350.768 940.233 350.768C955.343 350.768 963.81 341.324 967.131 336.505C967.196 336.7 967.327 336.895 967.457 337.091C967.652 337.286 967.913 337.416 968.173 337.416C968.304 337.416 968.499 337.416 968.629 337.351C968.89 337.286 969.15 337.286 969.411 337.351C969.737 337.482 969.997 337.677 970.192 337.937C970.388 338.198 970.713 338.459 971.039 338.524C971.69 338.719 972.407 338.914 973.058 339.11C973.97 339.305 974.817 339.631 975.728 339.891C976.249 340.087 976.705 340.152 977.226 340.217C977.747 340.217 978.268 340.022 978.659 339.696C979.245 339.24 979.636 338.524 979.766 337.807C979.897 337.091 980.157 337.026 980.678 337.026C980.874 337.026 981.069 337.026 981.199 336.961C981.785 336.505 982.306 335.853 982.632 335.137C982.762 334.942 982.827 334.746 982.958 334.616C983.088 334.486 983.088 334.29 983.153 334.095C983.153 333.834 982.958 333.574 982.697 333.574H979.636C978.724 333.639 978.334 334.486 978.008 335.332C977.878 335.593 977.747 335.918 977.617 336.179C977.357 336.635 976.836 336.895 976.315 336.895C976.054 336.83 975.794 336.83 975.533 336.765C974.296 336.505 973.058 336.179 972.537 334.942C972.407 334.616 972.472 334.225 972.732 333.965C973.449 333.118 974.23 332.271 975.142 331.555C976.445 331.229 977.552 330.383 978.268 329.275C978.399 329.08 978.464 328.885 978.529 328.624C978.594 328.298 978.789 327.973 979.05 327.777C979.245 327.647 979.376 327.712 979.441 327.908C979.506 328.559 979.376 329.21 979.115 329.731C979.05 329.861 978.985 329.992 978.985 330.122L978.92 330.187H979.05C979.376 330.252 979.766 330.252 980.092 330.252C981.33 330.252 982.502 330.057 983.674 329.796C984.846 329.536 986.019 329.406 987.256 329.34H987.647C988.168 329.34 988.754 329.406 989.21 329.406C989.666 329.406 990.252 329.536 990.773 329.536H991.294C992.857 329.471 993.965 328.754 994.355 327.647C994.681 326.67 994.681 325.042 994.225 322.697C994.225 322.632 994.225 322.567 994.225 322.502V322.437C994.225 322.372 994.225 322.241 994.355 322.176C994.486 322.111 994.681 322.176 994.746 322.372C995.267 323.935 995.658 325.628 995.853 327.256C996.114 328.689 996.635 330.057 997.482 331.229C998.654 332.923 1000.54 333.899 1002.56 333.834C1003.08 333.834 1003.54 333.769 1003.99 333.704C1004.25 333.704 1004.45 333.704 1004.71 333.704C1007.38 333.704 1009.86 334.942 1011.42 337.026C1011.42 337.091 1011.42 337.091 1011.42 337.156C1011.35 337.286 1011.29 337.286 1011.16 337.286L1010.96 337.091C1009.47 335.918 1007.9 334.681 1005.95 334.486C1005.62 334.421 1005.23 334.355 1004.84 334.355C1004.32 334.355 1003.73 334.421 1003.21 334.486C1002.69 334.551 1002.17 334.616 1001.65 334.616C1001.06 334.616 1000.41 334.486 999.891 334.29C997.612 333.574 995.788 330.969 995.202 329.34C995.137 329.275 995.072 329.21 994.941 329.21C994.876 329.21 994.811 329.21 994.746 329.275C994.486 329.471 994.42 329.536 994.42 329.666C994.486 330.252 994.551 330.838 994.681 331.425C995.007 332.662 995.397 334.486 997.026 335.202L997.612 335.593C998.328 336.179 999.24 336.57 1000.22 336.635C1000.41 336.635 1000.67 336.57 1000.87 336.57C1001.45 336.44 1002.04 336.374 1002.63 336.374C1004.52 336.374 1006.34 337.026 1007.9 338.133C1008.16 338.263 1008.42 338.459 1008.68 338.654C1009.01 338.98 1009.33 339.175 1009.79 339.37C1010.05 339.501 1010.38 339.501 1010.64 339.501C1011.16 339.501 1011.61 339.305 1012.07 339.045C1012.27 338.98 1012.46 338.914 1012.66 338.914C1013.24 338.914 1013.57 339.37 1013.96 339.956C1014.22 340.347 1014.48 340.738 1014.87 341.064C1015.39 341.454 1016.04 341.715 1016.69 341.65C1017.02 341.65 1017.28 341.65 1017.61 341.585C1017.93 341.52 1018.26 341.585 1018.45 341.52C1018.52 341.52 1018.65 341.52 1018.71 341.454V341.389C1018.26 340.217 1017.87 339.175 1017.41 338.198ZM969.541 306.61C969.737 306.936 969.671 307.392 969.346 307.587C969.085 307.848 968.825 308.108 968.564 308.304C967.587 309.085 966.675 310.062 965.959 311.104C965.699 311.56 965.438 312.016 965.177 312.472C965.177 312.537 965.112 312.602 964.982 312.602C964.917 312.602 964.852 312.602 964.852 312.537C964.656 312.342 964.852 311.104 965.047 310.453C965.764 308.825 966.871 307.392 968.304 306.35C968.499 306.22 968.694 306.22 968.89 306.22C969.15 306.155 969.411 306.35 969.541 306.61ZM911.967 308.825C912.097 308.629 912.293 308.564 912.488 308.629C912.618 308.629 912.683 308.629 912.814 308.695C913.27 309.02 913.66 309.476 913.856 309.997C914.702 311.756 914.051 314.231 914.051 314.231C914.051 314.361 913.921 314.426 913.856 314.426C913.791 314.426 913.726 314.426 913.726 314.231C913.53 313.058 913.205 311.886 912.749 310.779C912.618 310.518 912.488 310.323 912.293 310.127C911.967 309.671 911.707 309.346 911.967 308.825ZM971.56 328.885L969.867 331.425C969.411 331.946 969.15 332.597 968.955 333.248C968.89 333.834 968.89 334.486 968.955 335.072V335.202C968.89 335.202 968.825 335.137 968.825 335.072C968.108 333.834 967.978 332.727 968.369 331.946C968.564 331.425 969.997 329.471 970.388 328.819C970.518 328.624 970.648 328.429 970.518 328.298C970.062 327.973 969.606 327.777 969.085 327.647H969.02C968.76 327.712 968.629 327.908 968.499 328.168L968.369 328.298L966.285 332.141L966.22 332.271C966.089 332.662 966.024 333.053 966.089 333.444C966.154 333.769 966.22 334.03 966.285 334.355C963.81 338.263 955.734 349.075 940.038 349.075C924.472 349.075 916.461 338.459 913.986 334.486L914.051 334.29C914.442 333.574 914.442 332.662 914.051 331.946C913.27 330.773 912.553 329.471 912.097 328.103V328.038H912.032L911.576 327.908C911.251 327.777 910.925 327.712 910.599 327.647C910.274 327.582 909.948 327.777 909.753 328.038L911.967 332.467C912.162 332.857 912.228 333.248 912.162 333.704C911.837 334.616 911.316 335.463 910.664 336.179C910.599 336.244 910.534 336.244 910.469 336.244C910.469 336.244 910.339 336.244 910.404 335.984C910.664 335.007 910.795 334.03 910.795 333.053C910.73 332.402 908.841 329.34 908.776 329.21L908.711 329.145C908.385 328.689 908.19 328.168 908.19 327.582C908.19 327.321 908.385 327.126 908.58 327.061C908.906 326.931 909.232 326.866 909.557 326.8C910.339 326.605 911.186 326.475 911.446 326.019C912.358 324.586 913.009 322.958 913.205 321.264C913.205 321.199 913.27 321.004 913.4 321.004C913.53 321.004 913.53 321.004 913.595 321.199C913.921 323.088 913.465 324.977 912.358 326.54C912.293 326.67 912.228 326.8 912.293 326.996C912.358 327.126 912.423 327.191 912.488 327.256C912.944 327.517 914.507 327.387 915.614 326.8C916.461 326.8 917.308 326.67 918.089 326.54L918.806 326.345C918.871 326.41 918.936 326.475 918.936 326.54C918.285 327.256 917.829 328.233 917.633 329.21C917.438 329.406 917.243 329.601 917.047 329.731C916.331 330.383 915.549 331.164 915.484 332.076C915.484 332.271 915.614 332.402 915.81 332.467C915.94 332.467 916.07 332.402 916.2 332.336C916.331 332.271 916.461 332.271 916.591 332.271C916.721 332.271 916.787 332.402 916.787 332.532L915.94 333.769C915.679 334.29 915.679 334.811 915.875 335.332C915.94 335.593 915.94 335.853 916.005 336.114C916.266 336.765 916.917 337.156 917.568 337.091C918.61 337.026 919.652 336.765 920.564 336.309L921.085 336.114C922.388 335.658 923.821 335.528 925.188 335.853C926.491 335.788 927.533 334.876 928.51 334.03C929.031 334.095 929.487 334.355 929.812 334.746C931.18 336.244 933.134 337.091 935.153 337.026H935.609C935.869 336.961 935.935 336.83 935.935 336.7C935.935 336.505 935.739 336.309 935.544 336.244L934.306 335.593C933.329 334.942 932.222 334.225 931.962 333.248C931.636 332.271 931.18 331.294 930.594 330.383C930.529 330.252 930.399 330.122 930.333 329.927C930.138 329.666 930.008 329.406 929.878 329.145C931.245 329.601 931.962 330.578 932.873 332.271C933.72 333.704 935.283 334.681 936.977 334.811C937.172 334.811 937.433 334.811 937.628 334.746C937.758 334.746 937.888 334.616 937.954 334.421C938.019 334.29 937.954 334.16 937.823 334.095L936.846 333.574C935.674 332.857 934.958 331.75 934.306 330.578C934.046 330.122 933.785 329.666 933.46 329.275C933.199 328.95 932.939 328.689 932.678 328.429C932.483 328.298 932.287 328.103 932.157 327.908C931.05 324.912 929.878 321.395 929.617 317.552C929.487 316.575 929.161 315.663 928.64 314.817C926.947 312.342 925.123 309.997 923.169 307.783C922.974 307.587 922.909 307.522 922.778 307.392L922.713 307.262L916.07 301.726C915.81 301.53 915.549 301.335 915.354 301.205C916.526 299.642 917.829 298.209 919.262 296.841C930.985 286.03 949.025 286.03 960.749 296.841C962.377 298.404 963.875 300.098 965.177 301.921C963.94 302.898 962.637 303.875 961.4 304.787C958.599 306.676 955.994 308.89 953.65 311.3C951.305 313.709 950.458 316.705 949.677 319.571C949.547 320.027 949.416 320.418 949.286 320.874C949.091 321.655 948.895 322.502 948.635 323.283C947.528 327.582 946.485 331.815 942.187 334.551C941.992 334.681 941.992 334.876 942.057 335.072C942.122 335.137 942.187 335.202 942.252 335.202C942.382 335.267 944.141 335.853 945.964 334.03C947.006 332.727 947.658 331.49 948.895 330.057C948.96 329.992 949.091 329.927 949.221 329.927C949.286 329.992 949.351 329.992 949.286 330.187C949.091 330.708 948.83 331.229 948.439 331.685C948.049 332.141 947.788 332.662 947.593 333.248C947.202 334.486 946.03 335.463 945.053 336.309C944.987 336.374 944.857 336.44 944.792 336.505C944.727 336.635 944.727 336.7 944.727 336.7C944.727 336.961 944.922 337.156 945.378 337.156C947.788 337.156 949.481 335.463 951.11 333.834C951.175 333.769 951.305 333.704 951.37 333.704C951.435 333.704 951.566 333.704 951.631 333.769C951.826 333.899 952.021 334.095 952.152 334.225C952.673 334.746 953.259 335.137 953.975 335.332C954.822 335.202 955.604 335.137 956.45 335.137H957.101C957.948 335.397 958.86 335.723 959.707 336.049C960.293 336.244 960.944 336.505 961.53 336.7C962.312 336.7 962.898 335.918 963.289 335.267C963.419 334.811 963.419 334.355 963.289 333.899C963.224 333.639 963.159 333.378 963.159 333.118C963.354 333.053 963.549 333.053 963.745 333.118C963.94 333.118 964.135 333.118 964.266 333.118C964.526 333.053 964.722 332.792 964.656 332.532C964.461 331.815 964.135 331.164 963.68 330.643C963.354 330.187 963.028 329.666 962.833 329.08C962.507 328.364 962.051 327.712 961.465 327.191C960.814 326.605 960.358 325.889 960.097 325.042C960.097 325.042 960.032 324.847 960.097 324.781C960.163 324.716 960.358 324.781 960.358 324.781C960.618 324.977 960.944 325.237 961.205 325.433C962.051 326.214 963.028 326.8 964.201 327.126C965.308 327.256 966.415 327.321 967.522 327.256C967.783 327.256 967.913 326.996 967.913 326.8V326.735C967.392 325.758 967.001 324.716 966.741 323.609C966.48 322.762 965.959 320.548 966.545 318.855C966.545 318.724 966.675 318.659 966.806 318.659H966.871C967.066 318.724 967.196 318.92 967.196 319.115V319.311C967.327 321.59 967.522 323.739 968.89 325.563C969.281 326.084 969.737 326.475 970.258 326.8C970.648 326.996 970.974 327.191 971.3 327.517C971.625 327.842 971.756 328.429 971.56 328.885ZM924.407 330.773C924.602 330.708 924.863 330.708 925.058 330.838C925.384 330.969 925.188 331.815 925.188 331.946C925.188 332.206 925.058 332.467 924.863 332.662C924.407 332.923 923.886 332.988 923.3 332.988C922.844 332.988 922.713 332.923 922.583 332.792C922.453 332.662 922.648 332.336 922.648 332.336C923.039 331.555 923.625 331.034 924.407 330.773ZM923.43 322.046C923.56 321.655 923.69 321.33 923.821 320.939C923.821 320.939 924.146 320.157 924.276 319.962C924.407 319.701 924.732 319.506 925.058 319.506C925.449 319.506 925.774 319.701 925.97 319.962C926.165 320.222 926.361 320.483 926.491 320.743C926.686 321.069 926.947 321.33 927.207 321.59C927.663 322.111 927.989 322.762 928.184 323.414C928.314 323.87 928.314 324.326 928.249 324.781C928.249 325.042 928.119 325.302 928.054 325.498C927.989 325.693 927.793 325.823 927.598 325.823C927.272 325.823 927.272 325.433 927.272 325.368C927.272 324.847 927.142 324.326 927.012 323.804C926.751 323.283 925.709 321.916 925.058 321.981C924.732 322.111 924.407 322.307 924.146 322.632C923.755 323.153 923.755 323.153 923.625 323.283C923.495 323.414 923.365 323.283 923.3 323.023C923.3 322.762 923.3 322.372 923.43 322.046ZM957.427 323.609C957.167 323.479 957.036 323.283 956.906 323.088C956.776 322.828 956.646 322.567 956.255 322.632H956.19C955.929 322.697 955.604 322.828 955.408 323.023C955.278 323.088 954.757 323.479 954.692 323.609C953.975 324.065 953.454 324.781 953.194 325.563C953.129 325.823 953.129 325.823 953.129 326.019C953.129 326.279 952.998 326.54 952.803 326.735C952.738 326.735 952.738 326.735 952.673 326.735C952.542 326.735 952.477 326.67 952.412 326.605C952.347 326.54 952.282 326.475 952.282 326.345C952.152 325.042 952.608 323.739 953.585 322.893C954.171 322.372 954.757 321.785 955.213 321.134C955.408 320.809 955.669 320.483 955.929 320.222C956.125 320.027 956.45 320.222 956.971 320.743C957.427 321.395 957.818 322.111 958.144 322.893C958.209 323.088 958.209 323.283 958.144 323.479C957.948 323.544 957.688 323.674 957.427 323.609ZM957.427 332.792C957.297 332.988 956.971 333.118 956.711 333.053C956.45 333.053 956.19 332.988 955.929 332.857C955.473 332.532 955.213 331.946 955.213 331.359C955.148 331.164 955.278 330.969 955.408 330.904C955.473 330.838 955.604 330.838 955.669 330.838C956.19 330.838 956.711 331.099 957.101 331.49C957.232 331.555 957.753 332.271 957.427 332.792Z" fill="#141414"/>
<path d="M901.871 333.834C902.067 334.16 902.197 334.485 902.392 334.811C902.653 335.332 902.848 335.853 903.109 335.918C903.239 335.983 903.369 335.983 903.434 335.983C904.151 335.918 904.802 335.658 905.388 335.202C905.714 334.941 905.584 334.746 905.453 334.485C905.388 334.42 905.323 334.29 905.323 334.225C905.193 333.964 905.063 333.639 904.998 333.313C904.867 332.792 904.672 332.271 904.086 332.336C903.239 332.466 902.327 332.531 901.481 332.531C901.481 332.531 901.155 332.531 901.09 332.727C901.025 332.922 901.22 333.183 901.481 333.378C901.676 333.508 901.806 333.639 901.871 333.834Z" fill="#141414"/>
<path d="M861.232 336.634C861.427 336.764 861.623 336.894 861.818 336.894C862.014 336.894 862.209 336.829 862.339 336.764C863.251 336.308 864.228 334.615 864.228 334.485C864.358 334.224 864.033 333.964 863.577 333.638L863.512 333.573C863.316 333.443 862.991 333.443 862.795 333.573L862.339 333.833C861.818 334.159 861.297 334.55 860.841 334.941C860.646 335.136 860.516 335.396 860.516 335.657C860.516 335.787 860.516 335.983 860.581 336.113C860.906 336.243 861.037 336.438 861.232 336.634Z" fill="#141414"/>
<path d="M859.408 336.635H859.343C858.822 336.895 858.431 337.286 858.236 337.872C858.105 339.566 858.04 339.696 857.584 340.217C857.454 340.347 857.389 340.673 857.519 340.803C858.171 341.064 858.822 341.324 859.473 341.454H859.538C859.669 341.389 859.799 341.064 860.124 339.891C860.32 339.305 860.515 338.589 860.711 337.937C860.711 337.872 860.711 337.807 860.58 337.612C860.45 337.416 859.799 336.635 859.408 336.635Z" fill="#141414"/>
<path d="M1051.8 363.729C1051.8 363.273 1051.6 362.882 1051.21 362.621C1050.82 362.426 1050.43 362.361 1050.04 362.361H1047.89V367.246H1048.67V365.096H1049.52L1050.82 367.246H1051.8L1050.37 365.096C1051.34 365.031 1051.8 364.51 1051.8 363.729ZM1048.74 363.012H1049.91C1050.69 363.012 1051.02 363.208 1051.02 363.663C1051.02 364.25 1050.56 364.38 1049.85 364.38H1048.67L1048.74 363.012Z" fill="#141414"/>
<path d="M1049.59 360.539C1047.24 360.539 1045.29 362.427 1045.29 364.837C1045.29 367.182 1047.18 369.136 1049.59 369.136C1051.93 369.136 1053.88 367.247 1053.88 364.902C1053.82 362.492 1051.93 360.539 1049.59 360.539ZM1049.59 368.354C1047.63 368.354 1046.07 366.791 1046.07 364.837C1046.07 362.883 1047.63 361.32 1049.59 361.32C1051.54 361.32 1053.1 362.883 1053.1 364.837C1053.1 366.791 1051.54 368.354 1049.59 368.354Z" fill="#141414"/>
<path d="M365.609 647.71H326.567C324.774 647.71 323.206 648.158 323.206 650.735V671.46C323.206 684.119 332.953 694.09 345.724 694.09C358.495 694.09 368.69 683.223 368.69 670.676V650.791C368.633 648.158 367.625 647.766 365.609 647.71Z" fill="#141414"/>
<path d="M385.215 693.978H424.256C426.049 693.978 427.617 693.586 427.617 691.009V670.34C427.617 657.68 417.927 647.71 405.1 647.71C392.272 647.71 382.134 658.577 382.134 671.124V691.009C382.134 693.642 383.198 694.034 385.215 693.978Z" fill="#141414"/>
<path d="M486.433 691.065C486.209 690.617 475.791 676.277 472.766 672.132C472.262 671.404 472.262 670.452 472.766 669.724C475.791 665.354 486.097 651.407 486.433 650.959C487.386 649.502 486.545 647.934 483.913 647.934H444.591C442.798 647.934 441.342 648.326 441.342 650.903V691.233C441.23 693.866 443.022 694.202 444.759 694.202H483.913C486.489 694.202 487.161 692.633 486.433 691.065Z" fill="#141414"/>
<path d="M306.403 647.71H267.305C265.456 647.71 264 647.99 264 650.735V690.953C264 693.53 265.456 693.978 267.305 693.978H283.437C284.669 693.978 285.509 693.754 286.35 692.801L301.137 673.14C301.697 672.412 302.089 671.572 302.369 670.732C302.762 668.379 301.081 667.595 299.233 667.651H298.617C297.048 667.651 298.28 666.027 298.28 665.971C298.28 665.915 309.203 651.239 309.539 650.679C310.324 649.166 309.595 647.71 306.403 647.71Z" fill="#141414"/>
<path d="M907.779 669.071C907.779 665.911 906.524 662.882 904.29 660.648C902.056 658.414 899.026 657.159 895.867 657.159H861.348C861.192 657.16 861.037 657.13 860.893 657.07C860.748 657.011 860.616 656.924 860.506 656.814C860.395 656.704 860.307 656.573 860.247 656.428C860.187 656.284 860.156 656.13 860.156 655.973V642.296C860.155 641.507 859.84 640.751 859.283 640.193C858.725 639.636 857.969 639.322 857.18 639.32H851.201C850.412 639.322 849.656 639.636 849.098 640.193C848.54 640.751 848.226 641.507 848.225 642.296V686.962C848.225 687.752 848.538 688.509 849.096 689.069C849.654 689.628 850.411 689.943 851.201 689.945H857.16C857.95 689.943 858.707 689.628 859.265 689.069C859.823 688.509 860.137 687.752 860.137 686.962V670.289C860.137 669.973 860.262 669.669 860.486 669.446C860.709 669.222 861.012 669.097 861.329 669.097H894.681C894.837 669.097 894.992 669.128 895.136 669.188C895.281 669.248 895.411 669.336 895.522 669.446C895.632 669.557 895.719 669.689 895.778 669.833C895.837 669.978 895.867 670.132 895.867 670.289V688.753C895.867 688.909 895.837 689.064 895.778 689.208C895.719 689.353 895.632 689.484 895.522 689.595C895.411 689.706 895.281 689.794 895.136 689.854C894.992 689.914 894.837 689.945 894.681 689.945H863.12C862.333 689.945 861.579 690.257 861.022 690.812C860.465 691.368 860.151 692.121 860.15 692.908V698.887C860.158 699.669 860.475 700.416 861.031 700.966C861.587 701.516 862.338 701.824 863.12 701.824H895.88C897.444 701.825 898.992 701.518 900.438 700.92C901.883 700.322 903.196 699.445 904.302 698.339C905.409 697.234 906.286 695.921 906.885 694.476C907.483 693.031 907.792 691.483 907.792 689.919L907.779 669.071Z" fill="#141414"/>
<path d="M1029.85 657.158H997.107C993.948 657.158 990.918 658.413 988.684 660.647C986.45 662.881 985.195 665.911 985.195 669.07V686.922C985.197 687.712 985.512 688.469 986.071 689.027C986.63 689.585 987.388 689.899 988.178 689.899H994.131C994.92 689.899 995.677 689.585 996.236 689.027C996.794 688.469 997.107 687.712 997.107 686.922V670.269C997.107 669.953 997.233 669.649 997.457 669.426C997.68 669.202 997.983 669.077 998.299 669.077H1029.85C1030.24 669.078 1030.63 669.001 1030.99 668.852C1031.35 668.703 1031.68 668.484 1031.96 668.207C1032.23 667.931 1032.45 667.602 1032.6 667.241C1032.75 666.879 1032.83 666.492 1032.83 666.1V660.148C1032.83 659.755 1032.76 659.367 1032.61 659.004C1032.46 658.641 1032.24 658.312 1031.96 658.034C1031.68 657.757 1031.35 657.536 1030.99 657.386C1030.63 657.236 1030.24 657.158 1029.85 657.158Z" fill="#141414"/>
<path d="M976.27 657.178V642.27C976.269 641.481 975.955 640.725 975.397 640.168C974.839 639.61 974.083 639.296 973.294 639.294H967.328C966.539 639.296 965.783 639.61 965.226 640.168C964.668 640.725 964.354 641.481 964.352 642.27V655.987C964.352 656.303 964.226 656.606 964.003 656.829C963.779 657.053 963.476 657.178 963.16 657.178H928.642C925.482 657.178 922.452 658.433 920.218 660.667C917.985 662.901 916.729 665.931 916.729 669.09V689.932C916.729 691.496 917.038 693.044 917.636 694.489C918.235 695.934 919.113 697.247 920.219 698.353C921.325 699.458 922.638 700.335 924.084 700.933C925.529 701.531 927.078 701.838 928.642 701.837H961.395C962.183 701.837 962.939 701.525 963.497 700.968C964.055 700.411 964.37 699.656 964.371 698.867V692.902C964.37 692.113 964.055 691.358 963.497 690.801C962.939 690.244 962.183 689.932 961.395 689.932H929.82C929.664 689.932 929.509 689.901 929.364 689.841C929.22 689.781 929.088 689.693 928.978 689.583C928.867 689.472 928.779 689.341 928.719 689.196C928.659 689.051 928.629 688.896 928.629 688.74V670.282C928.629 669.966 928.754 669.663 928.978 669.44C929.201 669.216 929.504 669.09 929.82 669.09H963.167C963.483 669.09 963.786 669.216 964.009 669.44C964.233 669.663 964.358 669.966 964.358 670.282V686.962C964.358 687.751 964.672 688.508 965.23 689.067C965.788 689.625 966.545 689.938 967.335 689.938H973.294C974.083 689.938 974.841 689.625 975.399 689.067C975.957 688.508 976.27 687.751 976.27 686.962V669.09V657.178Z" fill="#141414"/>
<path d="M1029.87 689.919H1023.91C1022.27 689.919 1020.93 691.252 1020.93 692.896V698.855C1020.93 700.499 1022.27 701.832 1023.91 701.832H1029.87C1031.51 701.832 1032.85 700.499 1032.85 698.855V692.896C1032.85 691.252 1031.51 689.919 1029.87 689.919Z" fill="#141414"/>
<path d="M1447.65 648.554C1444.19 648.554 1440.83 648.554 1437.36 648.554C1437.36 648.815 1437.36 649.076 1437.36 649.3C1437.36 652.208 1437.36 655.153 1437.36 658.06C1437.36 658.657 1437.25 658.843 1436.62 658.843C1432.59 658.806 1428.57 658.806 1424.54 658.843C1423.91 658.843 1423.79 658.62 1423.79 658.06C1423.83 655.153 1423.79 652.208 1423.79 649.3C1423.79 649.039 1423.76 648.815 1423.76 648.554C1420.33 648.554 1417.01 648.554 1413.54 648.554C1413.54 648.852 1413.54 649.039 1413.54 649.263C1413.54 652.208 1413.54 655.19 1413.54 658.135C1413.54 658.694 1413.36 658.843 1412.83 658.843C1411.53 658.806 1410.19 658.843 1408.88 658.843C1408.51 658.843 1408.36 658.955 1408.36 659.365C1408.36 661.415 1408.36 663.503 1408.36 665.553C1408.36 665.964 1408.51 666.075 1408.88 666.075C1410.15 666.075 1411.45 666.075 1412.72 666.075C1413.54 666.075 1413.54 666.075 1413.54 666.896C1413.54 672.599 1413.54 678.303 1413.54 684.007C1413.54 685.088 1413.58 686.206 1413.69 687.287C1413.99 690.717 1415.85 693.028 1419.17 694.035C1422.86 695.153 1426.55 694.668 1430.24 694.109C1430.24 691.388 1430.24 688.741 1430.24 686.02C1429.91 686.02 1429.61 686.02 1429.31 686.02C1428.3 686.057 1427.3 686.132 1426.29 686.132C1424.8 686.132 1423.98 685.311 1423.87 683.858C1423.83 683.447 1423.79 683.075 1423.79 682.665C1423.79 677.371 1423.79 672.077 1423.79 666.821C1423.79 666.187 1424.02 666.075 1424.58 666.075C1428.57 666.113 1432.55 666.075 1436.54 666.075C1437.36 666.075 1437.36 666.075 1437.36 666.896C1437.36 672.637 1437.36 678.34 1437.36 684.081C1437.36 685.088 1437.4 686.094 1437.48 687.064C1437.77 690.866 1439.71 693.215 1443.44 694.184C1446.98 695.153 1450.52 694.668 1454.1 694.109C1454.1 691.425 1454.1 688.741 1454.1 686.02C1453.77 686.02 1453.47 686.02 1453.17 686.02C1452.16 686.057 1451.16 686.132 1450.15 686.132C1448.62 686.132 1447.76 685.274 1447.69 683.783C1447.65 683.41 1447.65 683.075 1447.65 682.702C1447.65 677.408 1447.65 672.077 1447.65 666.784C1447.65 666.56 1447.65 666.374 1447.65 666.038C1450 666.038 1452.31 666.038 1454.59 666.038C1454.59 663.615 1454.59 661.266 1454.59 658.843C1452.28 658.843 1450 658.843 1447.65 658.843C1447.65 655.339 1447.65 651.947 1447.65 648.554Z" fill="#141414"/>
<path d="M1535.1 664.548C1532.27 660.261 1528.25 658.024 1523.14 657.801C1519.22 657.652 1515.72 658.77 1513 661.715C1512.92 661.79 1512.81 661.864 1512.59 662.05C1512.59 661.64 1512.59 661.417 1512.59 661.193C1512.59 656.459 1512.59 651.724 1512.59 646.952C1512.59 646.393 1512.44 646.244 1511.88 646.244C1508.97 646.281 1506.06 646.281 1503.16 646.244C1502.56 646.244 1502.45 646.431 1502.45 646.99C1502.45 662.535 1502.45 678.043 1502.45 693.589C1502.45 693.812 1502.49 694.036 1502.49 694.26C1505.84 694.26 1509.12 694.26 1512.44 694.26C1512.33 693.067 1512.18 691.874 1512.07 690.606C1512.25 690.755 1512.29 690.755 1512.33 690.793C1514.75 693.551 1517.81 694.968 1521.42 695.192C1524.41 695.378 1527.28 694.931 1529.89 693.439C1533.13 691.613 1535.14 688.742 1536.37 685.313C1537.98 680.951 1538.27 676.403 1537.68 671.818C1537.34 669.283 1536.56 666.785 1535.1 664.548ZM1527.84 676.142C1527.84 678.64 1527.61 680.914 1526.72 683.076C1525.82 685.275 1524.37 686.916 1521.95 687.4C1518.14 688.183 1514.71 686.804 1513.33 682.666C1511.95 678.528 1511.88 674.315 1513.33 670.177C1514.75 666.114 1519.04 664.325 1523.06 665.89C1525.23 666.748 1526.38 668.5 1527.09 670.625C1527.65 672.489 1527.84 674.39 1527.84 676.142Z" fill="#141414"/>
<path d="M1643.78 672.005C1643.51 671.595 1643.55 671.334 1643.89 670.999C1645.83 669.023 1647.76 667.01 1649.7 664.997C1651.64 662.984 1653.62 660.971 1655.67 658.808C1655.29 658.808 1655.07 658.808 1654.85 658.808C1651.19 658.808 1647.5 658.808 1643.85 658.808C1643.36 658.808 1642.99 658.958 1642.66 659.33C1639.15 663.058 1635.61 666.786 1632.11 670.514C1631.96 670.663 1631.81 670.775 1631.55 671.036C1631.55 662.686 1631.55 654.521 1631.55 646.32C1631.29 646.32 1631.1 646.283 1630.91 646.283C1627.97 646.283 1625.02 646.283 1622.08 646.283C1621.48 646.283 1621.33 646.469 1621.33 647.028C1621.33 662.574 1621.33 678.082 1621.33 693.627C1621.33 693.851 1621.37 694.075 1621.37 694.298C1624.76 694.298 1628.08 694.298 1631.47 694.298C1631.47 694 1631.47 693.739 1631.47 693.478C1631.47 690.309 1631.47 687.103 1631.47 683.935C1631.47 683.487 1631.62 683.152 1631.96 682.854C1633 681.884 1634.01 680.878 1635.05 679.908C1635.35 679.61 1635.69 679.312 1636.06 678.977C1636.21 679.237 1636.36 679.424 1636.47 679.648C1639.26 684.345 1642.06 689.042 1644.86 693.739C1645.15 694.224 1645.45 694.373 1645.97 694.373C1649.52 694.336 1653.02 694.373 1656.56 694.373C1656.79 694.373 1656.97 694.373 1657.27 694.373C1657.12 694.112 1657.05 693.963 1656.93 693.776C1652.57 686.507 1648.17 679.237 1643.78 672.005Z" fill="#141414"/>
<path d="M1568.66 658.918C1563.63 657.278 1558.48 657.241 1553.41 658.956C1548.31 660.67 1544.8 664.1 1543.05 669.207C1541.59 673.383 1541.48 677.67 1542.45 681.994C1543.79 687.921 1547.37 691.985 1553.08 694.11C1557.36 695.713 1561.76 695.862 1566.2 694.93C1570.97 693.923 1574.77 691.463 1577.35 687.25C1579.32 683.97 1580.1 680.391 1580.18 676.439C1580.14 674.538 1579.92 672.525 1579.36 670.549C1577.76 664.883 1574.36 660.782 1568.66 658.918ZM1568.47 682.218C1565.86 688.369 1558.89 688.071 1555.8 685.349C1553.93 683.709 1553.08 681.584 1552.7 679.198C1552.55 678.303 1552.52 677.409 1552.48 676.849C1552.55 674.426 1552.78 672.413 1553.64 670.475C1555.28 666.896 1558.44 665.666 1561.87 665.889C1565.3 666.15 1567.5 668.052 1568.66 671.183C1569.96 674.911 1570 678.602 1568.47 682.218Z" fill="#141414"/>
<path d="M1395.05 659.256C1392.25 658.137 1389.35 657.727 1386.36 657.727C1386.36 657.653 1382.56 657.951 1380.7 658.361C1374.58 659.852 1370.33 663.468 1368.32 669.47C1366.87 673.795 1366.83 678.231 1368.02 682.667C1369.44 688.035 1372.79 691.8 1377.94 693.851C1382.93 695.827 1388.04 695.976 1393.19 694.484C1398.11 693.068 1401.65 690.011 1403.7 685.351C1406.2 679.61 1406.2 673.795 1403.85 668.054C1402.17 663.916 1399.22 660.971 1395.05 659.256ZM1393.67 682.667C1392.1 685.761 1389.57 687.29 1386.1 687.178C1382.71 687.066 1380.32 685.388 1378.95 682.294C1377.98 680.057 1377.75 677.709 1377.9 675.323C1378.01 673.757 1378.31 672.192 1378.95 670.738C1380.55 667.047 1383.75 665.705 1387.3 666.003C1391.14 666.339 1393.3 668.687 1394.34 672.154C1394.79 673.608 1394.9 675.174 1395.01 675.919C1394.94 678.753 1394.6 680.766 1393.67 682.667Z" fill="#141414"/>
<path d="M1485.42 658.697C1480.72 657.318 1475.95 657.318 1471.25 658.772C1466.51 660.226 1463.01 663.208 1460.96 667.793C1459.69 670.589 1459.25 673.534 1459.25 676.778C1459.28 677.337 1459.28 678.082 1459.36 678.865C1459.39 679.462 1459.47 680.058 1459.58 680.655C1460.59 686.619 1463.64 691.093 1469.24 693.59C1474.38 695.902 1479.75 696.088 1485.15 694.56C1490.07 693.18 1493.65 690.086 1495.74 685.426C1498.16 679.984 1498.2 674.392 1496.19 668.837C1494.25 663.655 1490.67 660.226 1485.42 658.697ZM1486.16 681.4C1484.86 685.24 1481.95 687.29 1478.11 687.178C1474.38 687.104 1471.55 684.867 1470.47 681.027C1470.06 679.574 1469.76 676.554 1469.83 676.554C1469.83 674.504 1470.09 672.528 1470.91 670.627C1472.52 666.973 1475.72 665.706 1479.19 665.929C1482.62 666.19 1484.82 668.092 1485.97 671.186C1487.28 674.578 1487.35 678.008 1486.16 681.4Z" fill="#141414"/>
<path d="M1609.48 682.739C1608.14 685.758 1605.3 687.511 1602.06 687.175C1599.45 686.877 1597.55 685.386 1596.43 683.074C1594.23 678.526 1594.34 673.866 1596.65 669.393C1598.78 665.329 1603.66 664.547 1607.17 667.492C1608.21 668.349 1608.92 669.467 1609.52 670.698C1612.09 669.244 1614.66 667.79 1617.19 666.299C1615.44 663.279 1613.06 661.005 1609.96 659.514C1606.23 657.724 1602.28 657.352 1598.26 658.097C1592.67 659.141 1588.56 662.161 1586.14 667.38C1584.02 671.965 1583.72 676.737 1584.65 681.658C1585.32 685.348 1586.92 688.592 1589.83 691.052C1594.23 694.743 1599.3 696.159 1604.97 695.19C1610.67 694.221 1614.7 690.903 1617.61 685.982C1615.03 684.64 1612.46 683.335 1609.81 681.956C1609.7 682.291 1609.59 682.515 1609.48 682.739Z" fill="#141414"/>
<path d="M1668.31 680.688C1664.39 680.688 1661.26 683.745 1661.22 687.585C1661.22 691.462 1664.32 694.594 1668.19 694.594C1672.15 694.594 1675.28 691.537 1675.28 687.66C1675.31 683.82 1672.18 680.726 1668.31 680.688Z" fill="#141414"/>
</svg>
